<svg version="1.1" id="Laag_1" xmlns="http://www.w3.org/2000/svg" xmlns:xlink="http://www.w3.org/1999/xlink" x="0px" y="0px"
	 width="549.712px" height="287.715px" viewBox="0 0 549.712 287.715" enable-background="new 0 0 549.712 287.715"
	 xml:space="preserve">
<g>
	<defs>
		<rect id="SVGID_1_" width="549.712" height="287.715"/>
	</defs>
	<clipPath id="SVGID_2_">
		<use xlink:href="#SVGID_1_"  overflow="visible"/>
	</clipPath>
	<path clip-path="url(#SVGID_2_)" d="M475.062,48.792c-37.266,0-65.404,29.28-65.404,65.785c0,28.14,20.153,50.954,48.293,50.954
		c6.845,0,25.097-1.521,25.097-11.407c0-4.943-3.803-8.365-8.366-8.365c-1.14,0-2.28,0-3.422,0.76
		c-4.183,3.043-10.646,2.282-13.309,2.282c-17.872,0-31.182-15.972-31.182-34.984c0-29.28,21.675-49.434,47.152-49.434
		c41.068,0,58.56,36.886,58.56,78.334c0,57.039-27.759,125.865-84.798,125.865c-50.575,0-66.546-42.97-66.546-83.276
		c0-24.717,6.465-49.814,10.648-54.377c0.76-0.762,0.76-2.282,0.76-3.804c0-4.562-3.422-8.364-7.605-8.364
		c-3.803,0-6.463,1.521-8.365,4.562c-5.323,9.126-12.549,35.364-12.549,61.982c0,61.222,28.9,98.486,82.896,98.486
		c68.447,0,102.29-73.01,102.29-141.075C549.212,86.438,521.833,48.792,475.062,48.792 M278.088,284.173
		c11.027,0,20.534-11.407,20.534-50.194c0-16.731-1.901-33.843-3.804-50.194c-2.28-16.731-4.183-33.083-4.183-47.913
		c0-1.9,0.382-4.942,0.382-7.225c34.983-13.689,51.715-34.223,51.715-57.419c0-11.408-7.985-21.675-21.295-21.675
		c-25.478,0-44.871,31.941-46.771,69.208c-17.873,7.224-34.984,12.548-58.18,16.73c-4.563,0.76-7.986,3.042-7.986,7.226
		c0,4.942,2.282,7.984,7.225,7.984c11.408,0,44.491-9.126,58.18-15.59c0,11.407,1.141,20.153,1.9,30.42
		c1.521,18.253,6.085,48.293,6.085,69.588c0,21.676-4.563,31.182-7.225,34.604c-2.662,3.423-4.183,4.943-4.183,8.746
		S273.524,284.173,278.088,284.173 M291.777,111.154c3.041-25.856,15.971-45.631,28.139-45.631c3.423,0,5.704,3.042,5.704,6.465
		C325.62,87.198,314.213,101.269,291.777,111.154 M17.612,84.536c0-10.646,9.126-22.814,29.66-27.378
		c-0.761,14.069-4.183,33.082-7.605,49.054C29.4,103.93,17.612,97.466,17.612,84.536 M105.452,273.146
		c-30.801,0-64.645-17.112-64.645-68.447c0-25.856,5.324-51.715,12.929-81.756c30.421,0.381,46.772-16.351,46.772-36.124
		c0-4.562,0-13.689-8.746-13.689c-4.943,0-7.985,3.803-7.985,7.985c0,1.142,0.76,4.943,0.76,5.704
		c0,15.59-17.872,20.914-27.759,20.914c3.803-19.393,6.845-37.265,7.225-53.236c35.364-1.901,67.306,8.365,82.136,23.196
		c7.986,7.605,12.169,17.491,12.169,30.801c0,16.352-14.831,42.97-69.208,43.729c-4.563,0-8.365,3.803-8.365,8.366
		c0,4.942,3.802,7.985,8.365,7.604c52.096-3.802,81.376,16.732,81.376,49.435C170.476,255.273,136.633,273.146,105.452,273.146
		 M133.971,157.547c30.421-10.268,41.068-31.942,41.068-49.054c0-64.645-82.516-70.348-111.416-68.827
		C61.722,13.809,52.596,0.499,44.99,0.499c-4.943,0-8.365,3.804-8.365,8.366c0,2.281,0.38,4.183,2.281,6.084
		c5.324,5.704,7.225,17.111,7.605,26.998C16.471,48.031,0.5,65.523,0.5,84.536c0,17.112,12.929,31.182,37.265,36.125
		c-7.225,28.14-14.069,57.039-14.069,84.798c0,57.8,36.505,81.756,81.756,81.756c43.729,0,82.136-23.195,82.136-69.587
		C187.588,196.332,175.419,164.011,133.971,157.547"/>
</g>
</svg>
