<svg version="1.1" id="Laag_1" xmlns="http://www.w3.org/2000/svg" xmlns:xlink="http://www.w3.org/1999/xlink" x="0px" y="0px"
	 width="266.688px" height="363.221px" viewBox="0 0 266.688 363.221" enable-background="new 0 0 266.688 363.221"
	 xml:space="preserve">
<g>
	<defs>
		<rect id="SVGID_1_" width="266.688" height="363.221"/>
	</defs>
	<clipPath id="SVGID_2_">
		<use xlink:href="#SVGID_1_"  overflow="visible"/>
	</clipPath>
	<path clip-path="url(#SVGID_2_)" fill="#41AD49" d="M157.61,134.063c34.259,0,62.03-27.772,62.03-62.031
		c0-34.26-27.771-62.032-62.03-62.032c-34.259,0-62.031,27.772-62.031,62.032C95.579,106.291,123.351,134.063,157.61,134.063"/>
	<circle clip-path="url(#SVGID_2_)" fill="none" stroke="#FFFFFF" stroke-width="20" cx="157.61" cy="72.032" r="62.032"/>
	<path clip-path="url(#SVGID_2_)" fill="#41AD49" d="M256.658,297.207l-0.336-75.128v-27.847c0,0,0-70.866-70.865-70.866h-55.693
		c0,0-70.866,0-70.866,70.866v27.322l0.335,75.652c0,0,50.077,20.787,98.562,20.579
		C206.281,317.577,256.658,297.207,256.658,297.207"/>
	<path clip-path="url(#SVGID_2_)" fill="none" stroke="#FFFFFF" stroke-width="20" d="M256.658,297.207l-0.336-75.128v-27.847
		c0,0,0-70.866-70.865-70.866h-55.693c0,0-70.866,0-70.866,70.866v27.322l0.335,75.652c0,0,50.077,20.787,98.562,20.579
		C206.281,317.577,256.658,297.207,256.658,297.207z"/>
	<path clip-path="url(#SVGID_2_)" fill="#41AD49" d="M154.775,131.06c31.034,0,56.193-25.158,56.193-56.193
		c0-31.034-25.159-56.193-56.193-56.193c-31.034,0-56.193,25.159-56.193,56.193C98.583,105.901,123.742,131.06,154.775,131.06"/>
	<path clip-path="url(#SVGID_2_)" fill="#41AD49" d="M108.712,169.496c34.259,0,62.032-27.771,62.032-62.031
		s-27.772-62.031-62.032-62.031c-34.259,0-62.031,27.771-62.031,62.031S74.454,169.496,108.712,169.496"/>
	<circle clip-path="url(#SVGID_2_)" fill="none" stroke="#FFFFFF" stroke-width="20" cx="108.712" cy="107.465" r="62.031"/>
	<path clip-path="url(#SVGID_2_)" fill="#41AD49" d="M207.76,332.641l-0.334-75.128v-27.848c0,0,0-70.865-70.867-70.865H80.866
		c0,0-70.866,0-70.866,70.865v27.322l0.335,75.653c0,0,50.077,20.787,98.562,20.579C157.383,353.011,207.76,332.641,207.76,332.641"
		/>
	<path clip-path="url(#SVGID_2_)" fill="none" stroke="#FFFFFF" stroke-width="20" d="M207.76,332.641l-0.334-75.128v-27.848
		c0,0,0-70.865-70.867-70.865H80.866c0,0-70.866,0-70.866,70.865v27.322l0.335,75.653c0,0,50.077,20.787,98.562,20.579
		C157.383,353.011,207.76,332.641,207.76,332.641z"/>
	<path clip-path="url(#SVGID_2_)" fill="#41AD49" d="M108.712,163.657c31.034,0,56.194-25.157,56.194-56.192
		c0-31.034-25.16-56.193-56.194-56.193S52.52,76.431,52.52,107.465C52.52,138.5,77.679,163.657,108.712,163.657"/>
</g>
</svg>
