<svg version="1.1" id="Laag_1" xmlns="http://www.w3.org/2000/svg" xmlns:xlink="http://www.w3.org/1999/xlink" x="0px" y="0px"
	 width="293.322px" height="89.241px" viewBox="0 0 293.322 89.241" enable-background="new 0 0 293.322 89.241"
	 xml:space="preserve">
<g>
	<defs>
		<rect id="SVGID_1_" width="293.322" height="89.241"/>
	</defs>
	<clipPath id="SVGID_2_">
		<use xlink:href="#SVGID_1_"  overflow="visible"/>
	</clipPath>
	<path clip-path="url(#SVGID_2_)" opacity="1" fill="rgb(254,254,254)" d="M233.74,87.309c9.988,0,17.977-8.282,17.977-19.621
		c0-2.761-0.352-5.287-1.232-7.401c2.408-2.058,3.877-5.111,3.877-8.284c0-1.175-0.059-4.7-1.998-4.171 M252.363,47.831
		c-0.588,0.176-0.998,0.705-0.998,1.293v0.293c0.293,0.882,0.41,1.821,0.41,2.644c0,1.939-0.645,4.055-2.408,5.875
		c-3.583-5.934-9.047-8.46-14.509-8.46c-4.937,0-8.166,2.468-8.166,5.758c0,5.11,6.46,8.4,13.569,8.4
		c2.819,0,6.285-0.764,7.989-1.88c0.589,1.939,0.823,3.701,0.823,5.934c0,9.458-6.639,17.214-15.216,17.214
		c-8.107,0-13.923-5.641-13.923-15.099c0-4.641,1.586-9.459,3.877-11.574c0.234-0.234,0.353-0.587,0.353-0.881
		c0-0.764-0.588-1.292-1.293-1.292c-0.353,0-0.646,0.117-0.94,0.353c-2.937,2.761-4.641,8.694-4.641,13.395
		c0,10.927,6.874,17.506,16.449,17.506 M247.311,59.463c-1.467,0.999-4.406,1.762-6.813,1.762c-6.11,0-11.222-2.761-11.222-5.814
		c0-1.88,1.646-3.525,5.583-3.525C239.498,51.885,244.315,54.352,247.311,59.463 M165.865,12.622c0.471-3.995,2.468-7.05,4.348-7.05
		c0.529,0,0.881,0.47,0.881,0.999C171.094,8.921,169.332,11.095,165.865,12.622 M163.751,39.352c1.704,0,3.173-1.762,3.173-7.755
		c0-2.585-0.293-5.228-0.588-7.754c-0.354-2.585-0.646-5.111-0.646-7.402c0-0.294,0.06-0.764,0.06-1.116
		c5.403-2.115,7.989-5.287,7.989-8.87c0-1.764-1.234-3.35-3.291-3.35c-3.936,0-6.932,4.935-7.225,10.692
		c-2.762,1.116-5.404,1.939-8.988,2.585c-0.705,0.117-1.234,0.47-1.234,1.116c0,0.764,0.354,1.233,1.117,1.233
		c1.762,0,6.873-1.409,8.988-2.408c0,1.762,0.176,3.113,0.293,4.699c0.236,2.82,0.941,7.462,0.941,10.751
		c0,3.349-0.705,4.817-1.117,5.347c-0.412,0.527-0.646,0.763-0.646,1.351C162.576,39.058,163.047,39.352,163.751,39.352
		 M211.042,1.64c0.294,0.882,0.412,1.821,0.412,2.644c0,1.939-0.647,4.055-2.409,5.875c-3.584-5.934-9.047-8.46-14.511-8.46
		c-4.935,0-8.165,2.467-8.165,5.757c0,5.112,6.462,8.401,13.57,8.401c2.82,0,6.285-0.764,7.99-1.88
		c0.586,1.938,0.821,3.701,0.821,5.934c0,9.458-6.638,17.213-15.215,17.213c-8.106,0-13.923-5.639-13.923-15.097
		c0-4.642,1.586-9.459,3.877-11.575c0.234-0.234,0.354-0.587,0.354-0.881c0-0.764-0.588-1.292-1.293-1.292
		c-0.354,0-0.646,0.117-0.941,0.353c-2.936,2.761-4.641,8.694-4.641,13.396c0,10.926,6.875,17.505,16.449,17.505
		c9.986,0,17.977-8.283,17.977-19.621c0-2.76-0.353-5.288-1.233-7.401c2.409-2.058,3.878-5.111,3.878-8.284
		c0-1.175-0.059-4.699-1.998-4.171c-0.587,0.176-0.999,0.705-0.999,1.293V1.64z M206.988,11.686
		c-1.469,0.999-4.405,1.762-6.814,1.762c-6.109,0-11.221-2.761-11.221-5.814c0-1.88,1.645-3.524,5.581-3.524
		C199.176,4.108,203.993,6.574,206.988,11.686 M250.99,1.64c0.293,0.882,0.41,1.821,0.41,2.644c0,1.939-0.645,4.055-2.408,5.875
		c-3.583-5.934-9.047-8.46-14.51-8.46c-4.936,0-8.166,2.467-8.166,5.757c0,5.112,6.461,8.401,13.57,8.401
		c2.819,0,6.285-0.764,7.989-1.88c0.589,1.938,0.823,3.701,0.823,5.934c0,9.458-6.639,17.213-15.217,17.213
		c-8.106,0-13.922-5.639-13.922-15.097c0-4.642,1.586-9.459,3.877-11.575c0.234-0.234,0.353-0.587,0.353-0.881
		c0-0.764-0.588-1.292-1.293-1.292c-0.353,0-0.646,0.117-0.94,0.353c-2.937,2.761-4.641,8.694-4.641,13.396
		c0,10.926,6.874,17.505,16.449,17.505c9.988,0,17.977-8.283,17.977-19.621c0-2.76-0.352-5.288-1.232-7.401
		c2.408-2.058,3.877-5.111,3.877-8.284c0-1.175-0.059-4.699-1.998-4.171c-0.588,0.176-0.998,0.705-0.998,1.293V1.64z
		 M246.936,11.686c-1.467,0.999-4.406,1.762-6.813,1.762c-6.11,0-11.222-2.761-11.222-5.814c0-1.88,1.646-3.524,5.582-3.524
		C239.123,4.108,243.939,6.574,246.936,11.686 M263.301,26.15c5.09,0,8.311-5.507,8.518-10.389c3.48-0.831,6.182-2.286,9.039-4.312
		c-7.844,13.816-11.844,27.269-11.844,29.554c0,0.624,0.365,1.194,1.039,1.194c0.52,0,1.039-0.467,1.143-0.986
		c1.352-8.467,8.104-23.529,14.025-33.449c0.104-0.208,0.155-0.364,0.155-0.572c0-0.623-0.521-1.142-1.144-1.142
		c-0.311,0-0.623,0.104-0.83,0.311c-3.793,3.74-7.531,6.285-11.584,7.272c-0.518-3.221-2.7-5.559-5.504-5.559
		c-3.377,0-5.092,2.079-5.092,4.156c0,2.389,2.649,4.051,5.766,4.051c0.832,0,1.715-0.052,2.546-0.155
		c-0.312,3.584-2.546,7.895-6.077,7.895c-2.753,0-3.896-2.753-3.896-5.35c0-1.246,0.312-2.701,0.832-3.947
		c0.104-0.104,0.104-0.312,0.104-0.468c0-0.623-0.52-1.143-1.143-1.143c-0.467,0-0.83,0.259-1.039,0.675
		c-0.674,1.61-0.986,3.272-0.986,4.883C257.328,23.448,259.717,26.15,263.301,26.15 M282.727,26.721
		c0,4.051,3.688,4.519,3.791,4.519c0.625,0,1.144-0.52,1.144-1.091c0-0.519-0.312-0.987-0.831-1.143
		c-1.299-0.363-1.87-0.987-1.87-2.285c0-1.299,1.039-2.961,2.806-2.961c2.545,0,3.271,2.805,3.271,4.935
		c0,4.415-2.337,8.829-6.129,8.829c-2.648,0-3.896-2.647-3.896-5.349c0-1.299,0.26-2.545,0.78-3.792
		c0.052-0.156,0.104-0.312,0.104-0.416c0-0.675-0.521-1.194-1.143-1.194c-0.469,0-0.832,0.26-1.039,0.728
		c-0.623,1.35-0.988,3.063-0.936,4.675c0,4.466,2.389,7.479,5.921,7.479c5.351,0,8.622-5.454,8.622-10.959
		c0-4.156-2.129-7.116-5.557-7.116C284.648,21.578,282.727,24.228,282.727,26.721 M269.482,13.995
		c-0.832,0.104-1.662,0.156-2.494,0.156c-1.922,0-3.479-1.091-3.479-2.025c0-1.143,1.039-1.974,2.805-1.974
		C268.131,10.152,269.223,12.021,269.482,13.995 M177.784,68.498c4.7-1.587,6.345-4.936,6.345-7.578
		c0-9.987-12.748-10.869-17.213-10.635c-0.294-3.993-1.705-6.051-2.879-6.051c-0.764,0-1.292,0.588-1.292,1.293
		c0,0.353,0.058,0.646,0.351,0.94c0.824,0.881,1.117,2.643,1.176,4.171c-4.641,0.94-7.106,3.642-7.106,6.58
		c0,2.643,1.996,4.816,5.755,5.581c-1.115,4.347-2.173,8.812-2.173,13.101c0,8.93,5.64,12.63,12.63,12.63
		c6.756,0,12.69-3.584,12.69-10.751C186.067,74.489,184.188,69.497,177.784,68.498 M173.377,86.356
		c-4.758,0-9.986-2.644-9.986-10.574c0-3.994,0.822-7.989,1.996-12.63c4.701,0.059,7.228-2.526,7.228-5.582
		c0-0.705,0-2.114-1.353-2.114c-0.764,0-1.232,0.588-1.232,1.233c0,0.176,0.117,0.765,0.117,0.881c0,2.409-2.762,3.231-4.288,3.231
		c0.588-2.996,1.058-5.757,1.116-8.225c5.463-0.294,10.398,1.292,12.69,3.583c1.233,1.176,1.878,2.702,1.878,4.76
		c0,2.525-2.291,6.638-10.691,6.756c-0.705,0-1.293,0.587-1.293,1.292c0,0.764,0.588,1.233,1.293,1.175
		c8.049-0.588,12.572,2.585,12.572,7.637C183.424,83.596,178.195,86.356,173.377,86.356 M159.807,57.219
		c0-1.646,1.41-3.525,4.582-4.23c-0.117,2.173-0.646,5.111-1.174,7.579C161.629,60.215,159.807,59.216,159.807,57.219
		 M203.926,60.623c0.471-3.996,2.469-7.051,4.349-7.051c0.526,0,0.881,0.47,0.881,0.999
		C209.155,56.921,207.393,59.094,203.926,60.623 M201.811,87.352c1.703,0,3.174-1.763,3.174-7.755c0-2.585-0.294-5.228-0.588-7.754
		c-0.354-2.585-0.646-5.111-0.646-7.403c0-0.293,0.059-0.763,0.059-1.115c5.404-2.115,7.988-5.286,7.988-8.871
		c0-1.763-1.231-3.349-3.289-3.349c-3.936,0-6.932,4.936-7.225,10.692c-2.762,1.117-5.406,1.938-8.99,2.585
		c-0.705,0.117-1.232,0.47-1.232,1.116c0,0.764,0.353,1.233,1.115,1.233c1.764,0,6.873-1.409,8.989-2.408
		c0,1.762,0.175,3.113,0.294,4.699c0.235,2.82,0.94,7.462,0.94,10.75c0,3.351-0.705,4.818-1.116,5.347s-0.648,0.764-0.648,1.352
		C200.635,87.058,201.106,87.352,201.811,87.352"/>
	<path clip-path="url(#SVGID_2_)" opacity="0.75" fill="rgb(254,254,254)" d="M136.221,48.823c-5.161,0-10.501,2.825-13.764,6.641c0,0-1.7-5-9.3-5.3
		l-2.4,6.8c3,0.5,3,3.92,3,3.92v27.251h10.777V61.783c2.2-3.384,4.629-5.328,7.741-5.328c2.732,0,4.401,1.225,4.401,5.616v26.063
		h10.777V60.343C147.453,53.144,143.279,48.823,136.221,48.823 M108.978,1.342c-4.629,0-11.556,1.381-13.378,6.708
		c0,0-1.6-5-9.2-5.3L84,9.55c3,0.5,3,4.101,3,4.101l0.121,27.004h11.991V21.718c1.29-5.832,3.339-9.359,8.348-9.359
		c1.366,0,2.353,0.216,3.643,0.504L113,1.847C111.71,1.486,110.496,1.342,108.978,1.342 M64.764,9.281
		c3.339,0,5.16,1.944,5.16,5.328c0,4.176-2.884,6.191-8.727,6.191H57.63v-7.271C59.299,10.793,61.652,9.281,64.764,9.281
		 M47.081,13.673v15.408c0,8.641,4.781,13.32,15.937,13.32c4.554,0,9.866-0.937,14.875-2.809l-2.429-6.84
		c-4.098,1.296-7.968,2.017-10.624,2.017c-5.085,0-7.21-1.513-7.21-6.265v-1.872h4.629c11.915,0,18.518-4.535,18.518-12.888
		c0-6.912-5.009-11.808-13.054-11.808c-4.781,0-9.182,1.584-12.066,5.76c-1.67-3.816-4.706-5.256-9.259-5.616L44.121,8.85
		C46.094,9.497,47.081,10.577,47.081,13.673 M145.714,5.313l-4.401,6.479c-3.112-1.943-6.451-3.023-9.563-3.023
		c-3.642,0-5.236,1.151-5.236,2.88c0,2.016,1.062,2.88,8.272,4.896c7.969,2.16,12.447,5.328,12.447,12.168
		c0,7.92-7.893,12.601-17.911,12.601c-6.982,0-12.902-2.305-16.848-5.688l5.919-6.264c2.96,2.304,6.679,3.815,10.549,3.815
		c3.719,0,5.92-1.296,5.92-3.527c0-2.664-1.214-3.456-8.5-5.4c-7.969-2.16-11.915-6.048-11.915-11.952
		c0-6.552,6.299-11.664,16.469-11.664C136.759,0.633,141.996,2.434,145.714,5.313 M14.652,40.798L4.811,12.515
		c0,0-0.811-2.681-4.811-2.381c0-0.3,2-6.008,2.5-7.708c10.709-1.793,12.309,5.7,12.309,5.7l7.052,24.032
		c0,0,3.338-11.698,5.639-22.741c2.5-12,14.017-6.851,14.017-6.851L28.843,40.798H14.652z M84.851,81.897
		c-3.339,0-5.161-1.944-5.161-5.328c0-4.176,2.884-6.192,8.728-6.192h3.567v7.272C90.315,80.385,87.963,81.897,84.851,81.897
		 M102.534,77.505V62.098c0-8.641-4.781-13.32-15.937-13.32c-4.554,0-9.866,0.936-14.875,2.808l2.428,6.84
		c4.098-1.296,7.969-2.016,10.625-2.016c5.085,0,7.21,1.512,7.21,6.264v1.872h-4.63c-11.915,0-18.517,4.536-18.517,12.889
		c0,6.911,5.009,11.808,13.053,11.808c4.781,0,9.183-1.584,12.067-5.76c1.67,3.815,4.705,5.256,9.259,5.616l2.277-6.769
		C103.52,81.682,102.534,80.602,102.534,77.505 M50.928,48.777c-5.161,0-8.879,2.231-12.067,6.191
		c-1.518-3.96-5.009-6.191-9.562-6.191c-5.085,0-10.182,2.896-13.142,6.64c0,0-1.7-5-9.3-5.3c0,0.3-2.4,6.8-2.4,6.8
		c3,0.5,2.985,3.868,2.985,3.868v27.304h10.777V61.737c1.973-3.384,3.946-5.328,6.906-5.328c2.201,0,3.946,1.224,3.946,5.616v26.063
		h10.777V61.737c2.049-3.384,4.022-5.328,6.982-5.328c2.125,0,3.946,1.224,3.946,5.616v26.063h10.777V60.297
		C61.553,53.098,57.227,48.777,50.928,48.777"/>
</g>
</svg>
