<svg version="1.1" id="Laag_2" xmlns="http://www.w3.org/2000/svg" xmlns:xlink="http://www.w3.org/1999/xlink" x="0px" y="0px"
	 width="489.656px" height="321px" viewBox="0 0 489.656 321" enable-background="new 0 0 489.656 321" xml:space="preserve">
<g>
	<path fill="#40D439" d="M489.656,235c0,5.5-4.5,10-10,10H10c-5.5,0-10-4.5-10-10l0,0c0-5.5,4.5-10,10-10h469.656
		C485.156,225,489.656,229.5,489.656,235L489.656,235z"/>
</g>
<g>
	<path fill="#FFFFFF" d="M256.952,225c0,5.5-4.5,10-10,10h-214c-5.5,0-10-4.5-10-10V20c0-5.5,4.5-10,10-10h214c5.5,0,10,4.5,10,10
		V225z"/>
	<path fill="none" stroke="#40D439" stroke-width="20" stroke-miterlimit="10" d="M256.952,225c0,5.5-4.5,10-10,10h-214
		c-5.5,0-10-4.5-10-10V20c0-5.5,4.5-10,10-10h214c5.5,0,10,4.5,10,10V225z"/>
</g>
<g>
	<path fill="none" stroke="#40D439" stroke-width="20" stroke-miterlimit="10" d="M294.952,64c0-5.5,4.5-10,10-10h69
		c5.5,0,12.706,3.596,16.014,7.99l60.973,81.02c3.308,4.395,6.014,12.49,6.014,17.99v64c0,5.5-4.5,10-10,10h-142
		c-5.5,0-10-4.5-10-10V64z"/>
</g>
<g>
	<path fill="#40D439" d="M337.952,113.372c0-5.5,4.5-10,10-10h7.034c5.5,0,12.527,3.723,15.616,8.274l14.733,21.708
		c3.089,4.551,1.116,8.274-4.384,8.274h-33c-5.5,0-10-4.5-10-10V113.372z"/>
	<path fill="none" stroke="#40D439" stroke-width="20" stroke-miterlimit="10" d="M337.952,113.372c0-5.5,4.5-10,10-10h7.034
		c5.5,0,12.527,3.723,15.616,8.274l14.733,21.708c3.089,4.551,1.116,8.274-4.384,8.274h-33c-5.5,0-10-4.5-10-10V113.372z"/>
</g>
<circle fill="#40D439" stroke="#40D439" stroke-width="30" stroke-miterlimit="10" cx="142.952" cy="262.25" r="43.75"/>
<circle fill="#40D439" stroke="#40D439" stroke-width="30" stroke-miterlimit="10" cx="375.952" cy="262.25" r="43.75"/>
</svg>
