<svg version="1.1" id="Laag_2" xmlns="http://www.w3.org/2000/svg" xmlns:xlink="http://www.w3.org/1999/xlink" x="0px" y="0px"
	 width="575.037px" height="319.75px" viewBox="0 0 575.037 319.75" enable-background="new 0 0 575.037 319.75"
	 xml:space="preserve">
<g>
	<path fill="#40D439" d="M575.037,234.25c0,5.5-4.5,10-10,10H140c-5.5,0-10-4.5-10-10l0,0c0-5.5,4.5-10,10-10h425.038
		C570.537,224.25,575.037,228.75,575.037,234.25L575.037,234.25z"/>
</g>
<g>
	<line fill="#FFFFFF" x1="380.333" y1="234.25" x2="108.333" y2="234.25"/>
	<line fill="none" stroke="#40D439" stroke-width="20" stroke-miterlimit="10" x1="380.333" y1="234.25" x2="108.333" y2="234.25"/>
</g>
<g>
	<path fill="#FFFFFF" d="M380.333,9.25"/>
	<path fill="none" stroke="#40D439" stroke-width="20" stroke-miterlimit="10" d="M380.333,9.25"/>
</g>
<g>
	<path fill="none" stroke="#40D439" stroke-width="20" stroke-miterlimit="10" d="M380.333,53.25h79c5.5,0,12.706,3.596,16.014,7.99
		l60.973,81.02c3.308,4.395,6.014,12.49,6.014,17.99v74"/>
</g>
<g>
	<path fill="#40D439" d="M423.333,112.622c0-5.5,4.5-10,10-10h7.034c5.5,0,12.527,3.723,15.616,8.274l14.733,21.708
		c3.089,4.551,1.116,8.274-4.384,8.274h-33c-5.5,0-10-4.5-10-10V112.622z"/>
	<path fill="none" stroke="#40D439" stroke-width="20" stroke-miterlimit="10" d="M423.333,112.622c0-5.5,4.5-10,10-10h7.034
		c5.5,0,12.527,3.723,15.616,8.274l14.733,21.708c3.089,4.551,1.116,8.274-4.384,8.274h-33c-5.5,0-10-4.5-10-10V112.622z"/>
</g>
<circle fill="#FFFFFF" stroke="#40D439" stroke-width="47" stroke-miterlimit="10" cx="461.333" cy="262.416" r="33.834"/>
<circle fill="#FFFFFF" stroke="#40D439" stroke-width="47" stroke-miterlimit="10" cx="248.333" cy="262.416" r="33.834"/>
<path fill="#40D439" d="M389.999,0v18.5H218.751c0,0-54.981-1-106.737-1C60.259,17.5,0,15.875,0,9.5s70.376-8.625,112.015-8.625
	C153.654,0.875,218.751,0,218.751,0H389.999z"/>
<path fill="#40D439" d="M126.833,244.25h-18.5v-94.26c0,0,1-30.263,1-58.751s1.625-61.656,8-61.656s8.625,38.737,8.625,61.656
	c0,22.919,0.875,58.751,0.875,58.751V244.25z"/>
<path fill="#40D439" d="M371.499,0h18.5v94.26c0,0-1,30.264-1,58.751s-1.625,61.656-8,61.656s-8.625-38.737-8.625-61.656
	s-0.875-58.751-0.875-58.751V0z"/>
</svg>
