<?xml version="1.0" encoding="UTF-8" standalone="no"?>
<!DOCTYPE svg PUBLIC "-//W3C//DTD SVG 1.1//EN" "http://www.w3.org/Graphics/SVG/1.1/DTD/svg11.dtd">
<svg width="100%" height="100%" viewBox="0 0 576 320" version="1.1" xmlns="http://www.w3.org/2000/svg" xmlns:xlink="http://www.w3.org/1999/xlink" xml:space="preserve" xmlns:serif="http://www.serif.com/" style="fill-rule:evenodd;clip-rule:evenodd;stroke-miterlimit:10;">
    <path d="M575.037,234.25C575.037,239.75 570.537,244.25 565.037,244.25L140,244.25C134.5,244.25 130,239.75 130,234.25C130,228.75 134.5,224.25 140,224.25L565.038,224.25C570.537,224.25 575.037,228.75 575.037,234.25Z" style="fill:rgb(64,212,57);fill-rule:nonzero;"/>
    <g>
        <path d="M380.333,234.25L108.333,234.25" style="fill:none;fill-rule:nonzero;"/>
        <path d="M380.333,234.25L108.333,234.25" style="fill:none;fill-rule:nonzero;stroke:rgb(64,212,57);stroke-width:20px;"/>
    </g>
    <path d="M380.333,53.25L459.333,53.25C464.833,53.25 472.039,56.846 475.347,61.24L536.32,142.26C539.628,146.655 542.334,154.75 542.334,160.25L542.334,234.25" style="fill:none;fill-rule:nonzero;stroke:rgb(64,212,57);stroke-width:20px;"/>
    <g>
        <path d="M423.333,112.622C423.333,107.122 427.833,102.622 433.333,102.622L440.367,102.622C445.867,102.622 452.894,106.345 455.983,110.896L470.716,132.604C473.805,137.155 471.832,140.878 466.332,140.878L433.332,140.878C427.832,140.878 423.332,136.378 423.332,130.878L423.332,112.622L423.333,112.622Z" style="fill:rgb(64,212,57);fill-rule:nonzero;"/>
        <path d="M423.333,112.622C423.333,107.122 427.833,102.622 433.333,102.622L440.367,102.622C445.867,102.622 452.894,106.345 455.983,110.896L470.716,132.604C473.805,137.155 471.832,140.878 466.332,140.878L433.332,140.878C427.832,140.878 423.332,136.378 423.332,130.878L423.332,112.622L423.333,112.622Z" style="fill:none;fill-rule:nonzero;stroke:rgb(64,212,57);stroke-width:20px;"/>
    </g>
    <g transform="matrix(0.880506,0.00140338,-0.00140338,0.880506,30.0361,35.0515)">
        <circle cx="248.333" cy="262.416" r="33.834" style="fill:white;stroke:rgb(64,212,57);stroke-width:47px;"/>
    </g>
    <g transform="matrix(1.56744,0.00249823,-0.00249823,1.56744,-141.115,-145.25)">
        <circle cx="248.333" cy="262.416" r="33.834" style="fill:white;fill-opacity:0;stroke:rgb(242,250,242);stroke-width:6.38px;"/>
    </g>
    <g transform="matrix(0.880506,0.00140338,-0.00140338,0.880506,239.296,35.0515)">
        <circle cx="248.333" cy="262.416" r="33.834" style="fill:white;stroke:rgb(64,212,57);stroke-width:47px;"/>
    </g>
    <g transform="matrix(1.56744,0.00249823,-0.00249823,1.56744,68.1458,-145.25)">
        <circle cx="248.333" cy="262.416" r="33.834" style="fill:white;fill-opacity:0;stroke:rgb(242,250,242);stroke-width:6.38px;"/>
    </g>
    <path d="M389.999,0L389.999,18.5L218.751,18.5C218.751,18.5 163.77,17.5 112.014,17.5C60.259,17.5 0,15.875 0,9.5C0,3.125 70.376,0.875 112.015,0.875C153.654,0.875 218.751,0 218.751,0L389.999,0Z" style="fill:rgb(64,212,57);fill-rule:nonzero;"/>
    <path d="M126.833,244.25L108.333,244.25L108.333,149.99C108.333,149.99 109.333,119.727 109.333,91.239C109.333,62.751 110.958,29.583 117.333,29.583C123.708,29.583 125.958,68.32 125.958,91.239C125.958,114.158 126.833,149.99 126.833,149.99L126.833,244.25Z" style="fill:rgb(64,212,57);fill-rule:nonzero;"/>
    <path d="M371.499,0L389.999,0L389.999,94.26C389.999,94.26 388.999,124.524 388.999,153.011C388.999,181.498 387.374,214.667 380.999,214.667C374.624,214.667 372.374,175.93 372.374,153.011C372.374,130.092 371.499,94.26 371.499,94.26L371.499,0Z" style="fill:rgb(64,212,57);fill-rule:nonzero;"/>
</svg>
