<svg version="1.1" id="Laag_2" xmlns="http://www.w3.org/2000/svg" xmlns:xlink="http://www.w3.org/1999/xlink" x="0px" y="0px"
	 width="509.5px" height="322px" viewBox="0 0 509.5 322" enable-background="new 0 0 509.5 322" xml:space="preserve">
<g>
	<path fill="#40D439" d="M509.5,235c0,5.5-4.5,10-10,10H66c-5.5,0-10-4.5-10-10l0,0c0-5.5,4.5-10,10-10h433.5
		C505,225,509.5,229.5,509.5,235L509.5,235z"/>
</g>
<g>
	<path fill="#FFFFFF" d="M51,235h262c5.5,0,10-4.5,10-10V10"/>
	<path fill="none" stroke="#40D439" stroke-width="20" stroke-miterlimit="10" d="M51,235h262c5.5,0,10-4.5,10-10V10"/>
</g>
<g>
	<path fill="none" stroke="#40D439" stroke-width="20" stroke-miterlimit="10" d="M323,64c0-5.5,4.5-10,10-10h69
		c5.5,0,12.706,3.596,16.014,7.99l60.973,81.02C482.294,147.404,485,155.5,485,161v64c0,5.5-4.5,10-10,10H333c-5.5,0-10-4.5-10-10
		V64z"/>
</g>
<g>
	<path fill="#40D439" d="M366,113.372c0-5.5,4.5-10,10-10h7.034c5.5,0,12.527,3.723,15.616,8.274l14.733,21.708
		c3.089,4.551,1.116,8.274-4.384,8.274h-33c-5.5,0-10-4.5-10-10V113.372z"/>
	<path fill="none" stroke="#40D439" stroke-width="20" stroke-miterlimit="10" d="M366,113.372c0-5.5,4.5-10,10-10h7.034
		c5.5,0,12.527,3.723,15.616,8.274l14.733,21.708c3.089,4.551,1.116,8.274-4.384,8.274h-33c-5.5,0-10-4.5-10-10V113.372z"/>
</g>
<circle fill="#FFFFFF" stroke="#40D439" stroke-width="20" stroke-miterlimit="10" cx="404.5" cy="263.667" r="48.333"/>
<circle fill="#FFFFFF" stroke="#40D439" stroke-width="20" stroke-miterlimit="10" cx="187" cy="263.667" r="48.333"/>
<path fill="#40D439" d="M332.5,0v18.5h-146c0,0-46.875-1-91-1S0,15.875,0,9.5s60-8.625,95.5-8.625S186.5,0,186.5,0H332.5z"/>
<g>
	<path fill="#40D439" d="M54,31.334c5.5,0,10,4.5,10,10V235c0,5.5-4.5,10-10,10l0,0c-5.5,0-10-4.5-10-10V41.334
		C44,35.834,48.5,31.334,54,31.334L54,31.334z"/>
</g>
</svg>
